<svg width="70" height="69" viewBox="0 0 70 69" fill="none" xmlns="http://www.w3.org/2000/svg">
<path fill-rule="evenodd" clip-rule="evenodd" d="M5.59583 0.656472C5.66772 1.01753 5.83998 1.98434 5.97825 2.80493C6.60136 6.50481 8.32646 11.3322 10.4893 15.4294L11.5192 17.3804L10.1951 16.0358L8.87079 14.6912L5.87099 14.9423C2.40816 15.2322 0 15.6468 0 15.9527C0 16.328 2.86958 19.6173 4.85306 21.5155C9.46841 25.9325 14.2209 28.9105 20.0967 31.0674C22.0214 31.7742 25.5712 32.7199 27.3315 32.9948C28.6027 33.1936 34.7144 35.7084 34.1772 35.8119C33.9643 35.8528 33.1956 35.7766 32.4693 35.6425C31.4454 35.4534 31.1085 35.463 30.9705 35.6857C30.538 36.3828 29.8384 40.2826 29.7086 42.7203C29.1524 53.166 34.7358 63.0401 43.9297 67.8707C46.8671 69.4141 46.7449 69.4245 47.1137 67.5983C47.3108 66.6227 47.4208 64.6285 47.4082 62.2547C47.3907 58.9331 47.314 58.1903 46.7862 56.2149C46.455 54.9761 45.8282 53.1398 45.3932 52.1344C44.4674 49.9945 42.7701 47.1101 42.3395 46.9451C42.1741 46.8818 41.5537 46.9951 40.9605 47.1971C40.3672 47.3991 39.8252 47.5644 39.7558 47.5644C39.6865 47.5644 40.7336 46.8409 42.0827 45.9565C48.4119 41.8083 52.5665 36.0998 54.1935 29.3163C55.0279 25.8368 57.592 22.96 61.5009 21.1173C63.9109 19.9811 66.7123 18.9404 68.7881 18.4097C70.7989 17.8957 70.3515 17.8225 67.1158 18.1365C62.8114 18.5541 59.8601 18.386 57.5284 17.5905C55.3242 16.8383 51.4016 16.5766 49.0892 17.0276C46.0361 17.6228 43.1321 19.0985 40.6835 21.2984L39.5659 22.3026L38.0594 19.9563C35.6056 16.1336 32.377 12.4945 28.7973 9.51632C22.9738 4.67128 14.2877 0.955099 6.92382 0.157921L5.46469 0L5.59583 0.656472Z" fill="url(#paint0_linear_83_6)"/>
<defs>
<linearGradient id="paint0_linear_83_6" x1="50.7585" y1="22.7745" x2="5.98667" y2="50.3433" gradientUnits="userSpaceOnUse">
<stop stop-color="#F5748A"/>
<stop offset="1" stop-color="#FBCB69"/>
</linearGradient>
</defs>
</svg>
